<?xml version="1.0" encoding="utf-8"?>
<!-- Generator: Adobe Illustrator 23.0.3, SVG Export Plug-In . SVG Version: 6.00 Build 0)  -->
<svg version="1.1" id="Layer_1" xmlns="http://www.w3.org/2000/svg" xmlns:xlink="http://www.w3.org/1999/xlink" x="0px" y="0px"
	 viewBox="0 0 80 80" style="enable-background:new 0 0 80 80;" xml:space="preserve">
<style type="text/css">
	.st0{fill:#FFFFFF;}
</style>
<g>
	<path class="st0" d="M48.34,46.79c0,1.01-0.82,1.83-1.83,1.83H31.85c-1.01,0-1.83-0.82-1.83-1.83v-9.77c0-1.01,0.82-1.83,1.83-1.83
		h0.61v1.83h-0.38c-0.13,0-0.23,0.1-0.23,0.23v9.31c0,0.13,0.1,0.23,0.23,0.23h14.2c0.13,0,0.23-0.1,0.23-0.23v-0.38h1.83V46.79z
		 M52,33.36v9.77c0,1.01-0.82,1.83-1.83,1.83H35.51c-1.01,0-1.83-0.82-1.83-1.83v-9.77c0-1.01,0.82-1.83,1.83-1.83h14.65
		C51.18,31.53,52,32.35,52,33.36z M35.74,33.36c-0.13,0-0.23,0.1-0.23,0.23v9.31c0,0.13,0.1,0.23,0.23,0.23h14.2
		c0.13,0,0.23-0.1,0.23-0.23v-9.31c0-0.13-0.1-0.23-0.23-0.23H35.74z M38.57,37.33c-0.84,0-1.53-0.68-1.53-1.53s0.68-1.53,1.53-1.53
		c0.84,0,1.53,0.68,1.53,1.53S39.41,37.33,38.57,37.33z M38.85,37.96c0.18-0.18,0.47-0.18,0.65,0l1.51,1.51l3.95-3.95
		c0.18-0.18,0.47-0.18,0.65,0l2.73,2.73v3.05H37.35v-1.83L38.85,37.96z"/>
</g>
</svg>
